<svg width="511" height="599" xmlns="http://www.w3.org/2000/svg" xmlns:xlink="http://www.w3.org/1999/xlink" overflow="hidden"><defs><clipPath id="clip0"><rect x="-708" y="-1696" width="511" height="599"></rect></clipPath></defs><g clip-path="url(#clip0)" transform="translate(708 1696)"><path d="M-233-1303.99C-233-1214.51-316.119-1180.57-409.656-1151.56-425.787-1145.96-440.349-1141.93-451.551-1137-463.65-1141.82-478.212-1145.85-494.343-1151.56-587.097-1180.57-671-1214.51-671-1303.99-671-1303.99-671-1554.77-671-1633.84-574.214-1603.15-488.742-1636.3-451.664-1654-415.369-1636.3-329.897-1603.15-233.111-1633.84-233-1554.77-233-1303.99-233-1303.99L-233-1303.99Z" fill="#FFFFFF" fill-rule="evenodd"></path><path d="M-232.587-1303.85C-232.587-1214.18-315.884-1180.17-409.622-1151.1-425.787-1145.49-440.381-1141.45-451.607-1136.51-463.731-1141.33-478.325-1145.37-494.491-1151.1-587.443-1180.17-671.526-1214.18-671.526-1303.85-671.526-1303.85-671.526-1555.15-671.526-1634.39-574.533-1603.64-488.878-1636.86-451.719-1654.59-415.347-1636.86-329.692-1603.64-232.699-1634.39-232.587-1555.15-232.587-1303.85-232.587-1303.85L-232.587-1303.85ZM-451.607-1695C-451.607-1695-575.318-1615.76-707-1687.7L-707-1303.85C-707-1142.23-494.378-1125.28-451.607-1097-409.622-1125.28-197-1142.23-197-1303.85L-197-1687.7C-328.682-1615.76-451.607-1695-451.607-1695Z" fill="#0068B7" fill-rule="evenodd"></path><path d="M-398.298-1310.86-397.402-1310.86-397.402-1310.86-295-1310.86-346.649-1400.5-345.865-1400.5-346.649-1400.5-295-1490.14-397.402-1490.14-397.402-1490.14-398.298-1490.14-449.052-1579-500.701-1490.14-501.485-1490.14-501.485-1490.14-604-1490.14-552.35-1400.5-553.134-1400.5-552.35-1400.5-604-1310.86-501.485-1310.86-501.485-1310.86-500.701-1310.86-449.052-1222Z" fill="#008CD6" fill-rule="evenodd"></path><path d="M-396.276-1430.77-396.276-1431.56-396.276-1431.56-396.276-1493-449.551-1462.22-449.551-1462.22-450.336-1462.22-503.724-1493-503.724-1431.56-503.724-1431.56-503.724-1430.77-557-1400-503.724-1369.22-503.724-1369.22-503.724-1369.22-503.724-1307-450.336-1337.78-449.551-1337.78-449.551-1337.78-396.276-1307-396.276-1369.22-396.276-1369.22-396.276-1369.22-343-1400Z" fill="#E60012" fill-rule="evenodd"></path><path d="M-395.776-1430.27-395.776-1431.06-395.776-1431.06-395.776-1492.5-449.051-1461.72-449.051-1461.72-449.837-1461.72-503.224-1492.5-503.224-1431.06-503.224-1431.06-503.224-1430.27-556.5-1399.5-503.224-1368.72-503.224-1368.72-503.224-1368.72-503.224-1306.5-449.837-1337.28-449.051-1337.28-449.051-1337.28-395.776-1306.5-395.776-1368.72-395.776-1368.72-395.776-1368.72-342.5-1399.5Z" stroke="#FFFFFF" stroke-width="6.8105" stroke-miterlimit="8" fill="none" fill-rule="evenodd"></path></g></svg>