<svg xmlns="http://www.w3.org/2000/svg" width="650" height="618" overflow="hidden"><defs><clipPath id="a"><path d="M-5617-123h650v618h-650z"/></clipPath></defs><g fill-rule="evenodd" clip-path="url(#a)" transform="translate(5617 123)"><path fill="#1D2788" d="M-5150.8 495c-47.55 0-95.33-10.657-138.17-30.85l-2.92-1.346-2.91 1.346c-42.85 20.193-90.73 30.85-138.17 30.85-56.97 0-112.94-15.033-162.06-43.414L-5616 439.47l.11-24.231c.45-105.339 52.49-204.283 139.18-264.637l2.69-1.907.23-3.253c8.41-106.461 68.63-201.816 160.93-255.326L-5292-122l20.86 12.116c92.41 53.398 152.52 148.865 160.93 255.326l.23 3.253 2.69 1.907c86.69 60.354 138.73 159.298 139.18 264.637l.11 24.231-20.97 12.116C-5037.87 480.08-5093.83 495-5150.8 495Z"/><path fill="#E60B16" d="M-5433 171.803c.45 103.987 57.05 194.625 141 243.197 83.95-48.572 140.55-139.322 141-243.197-41.47-24.005-89.67-37.803-141-37.803s-99.53 13.798-141 37.803Z"/><path fill="#FFEA00" d="M-4995.22 415.438c-.45-102.365-54.27-197.883-141.05-251.647v-.113l-.11-.112c-2.47-103.039-58.86-198.445-148.33-250.3l-7.4-4.266-7.4 4.265c-89.47 51.856-145.87 147.262-148.33 250.301l-.12.112v.113c-86.77 53.652-140.59 149.282-141.04 251.647v8.53l7.4 4.266c50.34 29.183 108.98 42.876 167.06 39.172 42.71-2.694 84.76-14.703 122.43-35.019l.11.112.11-.112c51.69 27.948 111.34 39.845 169.75 34.233 42.04-4.04 83.08-17.172 119.74-38.386l7.4-4.266-.22-8.53m-170.76-233.24c-2.58 59.264-25.34 116.508-63.46 161.742-17.71 21.101-39.13 40.182-62.67 54.325-25.23-16.275-47.88-35.805-66.82-59.264-18.17-22.56-32.63-48.04-42.83-75.202-9.87-26.49-15.81-54.887-16.6-83.172 53.04-29.183 116.83-38.05 176.03-26.938 13.56 2.581 27.13 6.173 40.14 10.887 12.44 4.49 24.33 10.102 36.21 16.051.11.561 0 1.01 0 1.571m-126.13-238.964c71.53 44.56 117.95 120.661 125.35 204.057-53.93-25.142-115.15-33.449-173.9-23.795-26.57 4.601-52.47 12.346-76.91 23.795 7.51-83.396 53.93-159.497 125.46-204.056m-141.05 495.325c-44.17 0-87.56-10.887-126.24-31.652 3.14-83.284 45.29-160.731 112.79-208.659 5.49 58.366 28.59 114.6 65.59 160.17 17.15 21.214 37.33 40.071 59.64 55.672-34.98 16.051-73.1 24.469-111.78 24.469m282.2 0c-38.68 0-76.91-8.418-111.66-24.469 48.32-34.121 85.32-82.273 106.73-137.385 9.76-25.03 15.92-51.743 18.39-78.569 67.49 48.04 109.65 125.487 112.79 208.659-38.68 20.877-82.18 31.764-126.25 31.764"/><path fill="#FFF" d="M-5313.92 227.808-5291.5 172l22.53 55.808 59.97 4.146-46.07 38.662 14.57 58.272-51-31.826-50.89 31.938 14.57-58.384-46.18-38.662Z"/></g></svg>