<svg width="641" height="615" xmlns="http://www.w3.org/2000/svg" xmlns:xlink="http://www.w3.org/1999/xlink" overflow="hidden"><defs><clipPath id="clip0"><rect x="-3698" y="-190" width="641" height="615"></rect></clipPath></defs><g clip-path="url(#clip0)" transform="translate(3698 190)"><path d="M-3190.64 47.2671C-3187.72 33.9063-3186.15 19.8719-3186.15 5.61287-3186.15-101.048-3272.59-187.5-3379.24-187.5-3485.9-187.5-3572.23-101.048-3572.23 5.61287-3572.23 20.4331-3570.55 34.8046-3567.4 48.6143-3642.06 75.3357-3695.5 146.63-3695.5 230.387-3695.5 337.048-3609.05 423.5-3502.4 423.5-3454.58 423.5-3410.68 406.098-3377 377.243-3343.21 406.098-3299.42 423.5-3251.6 423.5-3144.94 423.5-3058.5 337.048-3058.5 230.387-3058.5 145.17-3113.85 72.7536-3190.64 47.2671Z" stroke="#000000" stroke-width="2.83769" stroke-miterlimit="8" fill="#B60008" fill-rule="evenodd"></path><path d="M-3475 100.228-3421.04 98.0912-3380.07 44-3336.97 98.0912-3281 100.228-3308.99 154.432-3281 210.66-3334.84 212.909-3377.94 267-3421.04 210.66-3475 208.523-3449.14 158.705Z" fill="#FFF100" fill-rule="evenodd"></path><path d="M-3217.57 58.8113C-3212.74 43.2132-3210.17 26.6054-3210.17 9.43614-3210.17-83.5906-3285.53-159-3378.51-159-3471.49-159-3546.85-83.5906-3546.85 9.43614-3546.85 27.5026-3543.94 45.0084-3538.67 61.2798-3613.81 78.2245-3670 145.329-3670 225.564-3670 318.591-3594.63 394-3501.66 394-3451.97 394-3407.22 372.455-3376.49 338.117-3345.76 371.108-3302.02 391.756-3253.34 391.756-3160.37 391.756-3085 316.347-3085 223.32-3084.89 142.636-3141.75 75.1944-3217.57 58.8113ZM-3250.09 366.282C-3307.18 366.282-3356.19 331.496-3377.05 281.897-3397.35 332.618-3446.92 368.415-3504.91 368.415-3580.95 368.415-3642.63 306.696-3642.63 230.614-3642.63 154.531-3580.95 92.8124-3504.91 92.8124-3496.83 92.8124-3488.98 93.598-3481.36 94.8322-3502.44 70.5939-3515.23 38.9489-3515.23 4.27464-3515.23-71.808-3453.54-133.527-3377.5-133.527-3301.46-133.527-3239.77-71.808-3239.77 4.27464-3239.77 37.7147-3251.66 68.3494-3271.51 92.2514-3264.56 91.1295-3257.38 90.5686-3250.09 90.5686-3174.05 90.5686-3112.37 152.287-3112.37 228.369-3112.37 304.452-3173.94 366.282-3250.09 366.282Z" fill="#FFF100" fill-rule="evenodd"></path></g></svg>