<svg width="602" height="599" xmlns="http://www.w3.org/2000/svg" xmlns:xlink="http://www.w3.org/1999/xlink" overflow="hidden"><defs><clipPath id="clip0"><rect x="-5264" y="-2920" width="602" height="599"></rect></clipPath></defs><g clip-path="url(#clip0)" transform="translate(5264 2920)"><path d="M-4962.16-2321C-5128.17-2321-5263-2455.25-5263-2620.45-5263-2785.54-5128.17-2919-4962.16-2919-4796.83-2919-4662-2785.54-4662-2620.45-4662-2455.25-4796.83-2321-4962.16-2321Z" fill="#1D2088" fill-rule="evenodd"></path><path d="M-5042.19-2772.1C-5046.57-2769.19-5057.45-2759.1-5064.63-2754.73-5071.7-2751.14-5075.52-2755.51-5080.45-2751.14-5084.04-2748.45-5087.07-2746.1-5089.77-2744.75-5093.47-2742.62-5096.95-2741.72-5102.9-2741.05-5107.16-2740.38-5107.16-2746.1-5107.16-2747.55-5107.16-2750.58-5102.9-2750.58-5101.44-2751.93-5100.09-2752.6-5095.04-2755.74-5094.25-2756.41L-5091.45-2761.45C-5089.88-2762.91-5090.67-2764.93-5092.8-2763.47L-5098.74-2758.54-5103.68-2755.74C-5110.19-2751.93-5111.65-2751.25-5118.16-2750.69-5124.55-2750.69-5126.12-2753.27-5128.25-2757.87-5128.82-2759.32-5128.82-2760.78-5128.82-2762.12-5129.6-2764.25-5128.82-2765.71-5128.82-2767.84-5128.82-2769.97-5127.47-2771.43-5126.01-2773.67-5125.23-2774.23-5123.77-2775.02-5123.21-2775.69L-5118.16-2777.93-5111.65-2782.3-5101.44-2789.36-5092.12-2801.58C-5087.19-2810.32-5084.16-2814.69-5073.95-2818.28-5072.49-2818.95-5071.81-2818.95-5070.47-2819.85L-5060.37-2821.87-5063.96-2837C-5052.4-2835.54-5044.32-2829.83-5039.39-2821.87-5026.14-2830.5-5014.59-2834.87-5003.93-2834.2-5006.17-2823.33-5012.57-2815.25-5019.08-2810.44-5008.98-2796.2-5003.14-2780.84-4998.2-2764.25-4995.4-2746.88-4993.94-2720.43-4992.37-2700.92-4991.7-2690.84-4986.53-2681.98-4980.14-2675.03-4971.5-2664.05-4963.53-2667.07-4951.19-2661.36-4948.61-2660.57-4931.1-2648.92-4928.86-2648.24-4918.09-2643.98-4910.12-2640.51-4903.72-2640.51-4893.62-2639.84-4883.53-2632.44-4874.77-2625.94-4870.51-2622.35-4865.46-2619.44-4863.33-2614.95-4858.95-2610.69-4854.46-2606.43-4850.31-2603.63-4846.72-2602.29-4841.11-2602.29-4836.73-2603.63-4833.71-2605.76-4833.03-2609.35-4832.25-2612.82-4832.25-2615.74-4832.25-2619.44-4833.03-2623.02-4835.16-2631.65-4840.21-2640.4-4841-2642.42-4862.54-2671.89-4872.75-2692.63-4873.43-2717.29-4874.1-2730.4-4861.08-2751.25-4851.77-2760.78-4835.16-2775.02-4803.41-2780.84-4785.23-2764.93-4778.72-2759.21-4773.67-2751.25-4773-2743.52L-4806.21-2750.69C-4797.46-2741.16-4794.09-2740.49-4790.28-2728.16-4810.7-2736.23-4825.06-2728.95-4835.95-2714.6-4826.3-2721.89-4817.21-2725.36-4807.67-2722.45-4818.67-2713.14-4826.3-2701.6-4829.44-2687.7-4823.61-2696.44-4814.74-2704.96-4809.02-2699.36-4814.74-2692.63-4820.02-2686.47-4822.82-2677.83-4816.31-2677.83-4810.7-2681.87-4803.3-2687.7L-4819.12-2648.13C-4810.59-2650.48-4803.3-2655.3-4797.46-2661.25-4801.28-2647.46-4807.67-2636.59-4815.53-2628.74-4807-2627.84-4799.82-2631.65-4793.2-2637.48L-4811.26-2613.61C-4805.65-2614.95-4799.14-2617.42-4793.2-2620.89-4796-2613.61-4800.49-2607.11-4804.75-2602.17-4809.8-2596.23-4814.74-2592.09-4821.36-2589.06-4830.11-2584.8-4845.04-2581.1-4853.23-2588.16L-4852.44-2578.3C-4850.98-2550.84-4866.81-2529.88-4883.53-2511.16-4867.59-2497.71-4871.97-2477.31-4884.2-2463.52-4890.48-2454.22-4898.56-2447.72-4907.31-2442.79-4922.35-2433.48-4925.94-2430.46-4935.25-2413.19-4935.25-2405.91-4934.58-2400.98-4934.58-2398.29-4933.12-2382.93-4945.35-2401.76-4958.37-2392.35-4961.17-2390.78-4961.17-2397.5-4959.04-2405.35-4956.8-2422.05-4937.39-2438.53-4925.83-2449.29L-4911.47-2464.31C-4907.76-2468.68-4904.85-2475.18-4909.22-2478.09-4918.76-2484.71-4930.88-2495.47-4939.63-2507.68-4948.94-2525.06-4956.91-2542.32-4961.17-2561.82-5012.45-2548.04-5051.39-2588.39-5062.28-2618.76-5068.9-2612.94-5082.7-2607.89-5095.49-2606.43-5110.86-2606.43-5138.02-2619.44-5150.47-2629.52-5156.19-2634.46-5157.65-2632.33-5164.84-2627.84-5175.72-2614.84-5177.18-2607.78-5180.1-2594.1-5180.77-2591.98-5180.1-2592.76-5177.85-2590.52-5169.88-2582.56-5161.24-2583.34-5160.01-2579.87-5164.84-2572.47-5169.1-2564.63-5171.34-2555.21-5172.02-2550.84-5180.1-2564.51-5180.66-2566.76L-5185.71-2571.01C-5191.65-2576.84-5193-2580.54-5193-2587.6-5193-2591.98-5193-2593.43-5191.54-2597.69-5187.17-2608.56-5182.23-2618.54-5177.74-2628.63L-5171.23-2643.76C-5164.72-2653.18-5156.76-2657.32-5147.44-2659-5135.89-2659.68-5127.92-2658.33-5117.15-2654.63L-5109.18-2648.8-5102.67-2659C-5090.33-2674.14-5091.79-2674.92-5071.48-2681.87-5068.78-2682.77-5071.48-2689.27-5070.13-2692.63L-5068.67-2709.44-5063.62-2727.38-5057.11-2741.84-5051.28-2754.05-5042.19-2772.1Z" fill="#FFFFFF" fill-rule="evenodd"></path><path d="M-5147.35-2693.72C-5166.9-2691.5-5162.63-2678.07-5163.98-2662.32-5164.65-2656.55-5150.94-2662.87-5144.43-2662.87-5142.85-2670.08-5146.56-2675.97-5139.37-2670.75L-5127.01-2662.87C-5124.88-2661.65-5115.44-2656.43-5111.29-2655.1-5108.93-2654.44-5111.29-2657.21-5110.5-2657.21-5106.12-2661.76-5093.98-2673.75-5101.29-2678.07-5104.1-2679.52-5110.5-2677.52-5117.02-2678.74-5122.07-2680.74-5127.01-2688.06-5133.53-2691.5-5140.16-2695.16-5139.48-2693.72-5147.35-2693.72Z" fill="#FFFFFF" fill-rule="evenodd"></path><path d="M-5159.97-2624.12C-5156.86-2608.88-5148.99-2604.59-5141.33-2592.29-5139.89-2589.24-5137.67-2592.29-5135.56-2594.32-5133.34-2597.26-5131.23-2601.66-5130.57-2602.33-5129.13-2605.16-5130.57-2607.3-5133.34-2608.88-5134.9-2610.23-5138.33-2608.2-5141.33-2610.23-5143.33-2610.91-5144.21-2615.31-5145.55-2620.51-5153.31-2627.05-5160.52-2627.05-5159.97-2624.12Z" fill="#FFFFFF" fill-rule="evenodd"></path><path d="M-4975.61-2554.75-4964.08-2557C-4961.06-2538.91-4952.56-2517.9-4941.6-2502.73-4928.63-2485.42-4918.78-2483.96-4918-2478.12-4918-2477.33-4918.78-2476.54-4918.78-2475.76-4918.78-2472.27-4922.36-2468.79-4928.07-2464.97-4941.6-2454.97-4953.12-2450.7-4965.43-2436.88-4966.77-2434.63-4966.77-2434.63-4966.77-2431.6L-4968.34-2421.03C-4969.01-2418-4968.34-2418.67-4970.57-2418.67L-4990.59-2418C-4994.29-2418-4992.83-2418-4992.05-2422.27-4989.7-2433.28-4990.59-2437.55-4981.31-2444.07-4972.47-2450.59-4964.08-2458.57-4956.7-2467.1-4950.21-2475.76-4945.96-2480.93-4936.57-2488.79-4962.41-2507.11-4969.01-2525.99-4975.61-2554.75Z" fill="#FFFFFF" fill-rule="evenodd"></path><path d="M-5015-2809.66C-5005.83-2815.15-4968.46-2802.48-4966.22-2795.08-4966.22-2792.17-4981.33-2794.41-4995.87-2789.36-4979.31-2785.77-4966.22-2779.38-4959.18-2769.18L-4984.24-2769.18C-4969.92-2763.46-4961.86-2755.61-4957.61-2746.08L-4982.22-2751.8C-4964.99-2740.92-4950.34-2724.55-4954.81-2721.75L-4980.77-2733.86C-4966.34-2717.26-4959.18-2707.28-4961.19-2704.93L-4978.53-2711.43C-4968.57-2702.24-4962.76-2691.92-4961.97-2681.16L-4979.98-2694.28C-4976.52-2683.51-4968.69-2675.44-4962.76-2673.42-4972.15-2666.92-4989.49-2683.51-4990.05-2707.4-4989.27-2754.71-4994.42-2785.66-5015-2809.66Z" fill="#FFFFFF" fill-rule="evenodd"></path><path d="M-4984-2886-4984-2866.6C-5017.19-2863.8-5043.09-2859.43-5068.43-2846.42-5205.56-2780.72-5240.88-2622.87-5183.14-2511.76L-5205.56-2501C-5240.88-2591.92-5237.97-2681.17-5185.27-2769.96-5141.43-2840.03-5073.48-2881.07-4984-2886Z" fill="#FFFFFF" fill-rule="evenodd"></path><path d="M-4954-2886-4954-2866.62C-4921.56-2863.81-4894.73-2859.45-4869.59-2846.45-4730.17-2779.45-4691.89-2619.33-4753.29-2512L-4730.95-2499C-4650.02-2670.65-4743.3-2872.44-4954-2886Z" fill="#FFFFFF" fill-rule="evenodd"></path><path d="M-4743-2468.41-4768.88-2482.84C-4845.17-2345.47-5060.05-2329.58-5165.92-2490L-5189-2474.9C-5129.29-2394.91-5045.6-2345.35-4939.73-2353.97-4856.15-2359.11-4789.04-2399.39-4743-2468.41Z" fill="#FFFFFF" fill-rule="evenodd"></path><path d="M-5087-2795C-5085.33-2799.71-5082-2802-5077-2802-5077.11-2797.53-5082.78-2795.97-5087-2795Z" fill-rule="evenodd"></path></g></svg>