<svg width="674" height="674" xmlns="http://www.w3.org/2000/svg" xmlns:xlink="http://www.w3.org/1999/xlink" overflow="hidden"><defs><clipPath id="clip0"><rect x="847" y="-1488" width="674" height="674"></rect></clipPath></defs><g clip-path="url(#clip0)" transform="translate(-847 1488)"><path d="M1520-1150.11C1520-1335.95 1368.95-1487 1183.11-1487 997.267-1487 847-1335.95 847-1150.11 847-964.266 997.267-814 1183.11-814 1368.95-814 1520-964.266 1520-1150.11Z" fill="#004098" fill-rule="evenodd"></path><path d="M1470.5-1150C1470.5-1308.16 1342.16-1436.5 1184-1436.5 1025.84-1436.5 897.5-1308.16 897.5-1150 897.5-991.842 1025.84-863.5 1184-863.5 1342.16-863.5 1470.5-991.842 1470.5-1150" stroke="#FFFFFF" stroke-width="39.4977" stroke-miterlimit="8" fill="none" fill-rule="evenodd"></path><path d="M1271.6-1120.7 1298.31-1049.66 1281.36-1043.16 1204.58-1261 1076.84-1140.76 1110.74-1058.51 1096.15-1047.98 1024.2-1218.98 928-1114.09C945.735-989.034 1053.27-893 1183.37-893 1290.01-893 1382.16-957.546 1421-1049.55L1364.43-1205.31 1271.6-1120.7Z" fill="#FFFFFF" fill-rule="evenodd"></path></g></svg>