<svg xmlns="http://www.w3.org/2000/svg" width="524" height="613" overflow="hidden"><defs><clipPath id="a"><path d="M-5722-1596h524v613h-524z"/></clipPath></defs><g fill-rule="evenodd" clip-path="url(#a)" transform="translate(5722 1596)"><path fill="#0B318F" d="M-5721-1488.61c30.73-8.41 60.9-31.72 91.75-57.62 67.18-.11 126.74-18.16 169.14-48.77 39.48 26.35 90.51 51.12 170.37 49.55 25.69 21.3 52.49 42.94 90.74 56.62-20.41 37.67-24 106.61-24.23 164.91-7.18 169.74-67.74 258.08-236.43 339.92-128.2-62.11-220.29-129.71-235.54-307.85-2.58-66.26.56-144.4-25.8-196.76Z"/><path fill="#FFF" d="M-5703-1478c30.04-11.55 56.61-30.05 84.86-52.48 63.12-.11 117.94-16.59 157.74-45.52 37.11 25 85.09 47.21 160.09 45.75 24.1 20.18 49.32 39.47 85.31 52.36-19.17 35.66-22.65 101.03-22.76 156.08-6.72 160.79-63.67 244.33-222.08 321.81-120.51-58.75-204.15-123.68-220.51-291.87-1.69-62.68.67-136.57-22.65-186.13Z"/><path fill="#61AA31" d="M-5693-1474.2c28.71-10.99 50.47-24.45 77.38-45.86 60.34-.12 117.88-14.24 155.9-41.94 35.44 23.88 84 43.28 155.66 41.94 22.99 19.28 43.63 33.07 78.06 45.41-18.28 34.08-21.65 102.93-21.76 155.74-6.39 153.85-61.57 239.62-212.97 307.91-115.07-59.88-195.15-118.3-210.74-279.2-1.57-60.1.68-136.57-21.53-184Z"/><path fill="#FFF" d="m-5455.62-1506-42.17 39.13 1.69 62.79 65.79 64.69-.34 27.02-78.05-75.79v-66.26l-48.14 44.96-.45 61.77 67.82 65.59v28.71l-79.18-76.36v-67.16l-47.35 44.74v96.65l109.66 107.52 2.14-36.1 135.75-131.97.45-59.31-87.17-84.65-.45-45.97Z"/><path fill="#EA5504" d="m-5460.12-1496-33.33 31.11 1.67 59.31 65.32 64.81-.34 39.09-86.11-84.35-.12-58.19-39.25 36.96-.45 58.18 67.55 65.71v40.78l-87.35-84.81v-59.08l-38.47 36.62v93.11l100.99 99.75 1.68-28.31 134.88-132.2.45-55.61-86.79-84.91-.33-37.97Z"/><path fill="#FFF" d="m-5356.73-1402 51.28 46.88.45 97.57-149.36 146.13-2.13 33.42-35.83-34.43-1.68-64.15 136.38-132 .89-93.42Z"/><path fill="#EA5504" d="m-5352.28-1392 42.83 38.94.45 93.54-149.75 145.79-1.68 25.73-28-26.74-1.57-60.31 136.93-131.69.79-85.26Z"/></g></svg>