<svg xmlns="http://www.w3.org/2000/svg" width="648" height="647" overflow="hidden"><defs><clipPath id="a"><path d="M-6524-3036h648v647h-648z"/></clipPath></defs><g fill-rule="evenodd" clip-path="url(#a)" transform="translate(6524 3036)"><path fill="#1D2088" d="M-5877-2712c0 178.45-144.67 323-323 323s-323-144.55-323-323 144.55-323 323-323 323 144.55 323 323Z"/><path fill="#FFF100" d="M-6013.34-2594.45c-39.1 61.82-107.89 102.96-186.66 102.96-55.12 0-105.43-20.24-144.08-53.66l208.17-119.96L-6200-2702l-186.66 107.55-54.34 31.3a283.847 283.847 0 0 0 40.11 50.75c51.32 51.54 122.35 83.4 200.89 83.4 101.84 0 191.03-53.66 241-134.15l-54.34-31.3ZM-5954.2-2854.31c-51.07-88.29-142.63-138.77-237.8-141.69v62.82c73.46 2.92 143.99 41.96 183.47 110.17 27.67 47.79 35.21 101.53 25.53 151.9l-209-120.38v74.16l187.41 107.92 54.55 31.41c10.35-19.18 18.45-39.38 24.08-60.24 19.12-70.46 11.25-147.97-28.24-216.07ZM-6272.04-2986.68c-70.44 18.63-133.7 64.31-172.96 132.33-50.92 88.34-49.02 192.73-4.15 276.35l54.4-31.43c-34.21-64.99-35.44-145.36 3.93-213.6 27.59-47.82 70.43-81.27 118.66-98.1v240.88l64.16-37.05V-2996c-21.65.67-43.18 3.82-64.04 9.32Z"/><path fill="#1D2088" d="M-5920.29-2873.42c-89.22-154.54-286.74-207.4-441.17-118.29-154.54 89.22-207.4 286.74-118.18 441.17 89.23 154.54 286.75 207.4 441.17 118.18 154.43-89.11 207.29-286.64 118.18-441.06Z"/><path fill="#FFF100" d="M-5954.2-2854.31c-51.07-88.29-142.63-138.77-237.8-141.69v62.82c73.46 2.92 143.99 41.96 183.47 110.17 27.67 47.79 35.21 101.53 25.53 151.9l-209-120.38v74.16l187.41 107.92 54.55 31.41c10.35-19.18 18.45-39.38 24.08-60.24 19.12-70.46 11.25-147.97-28.24-216.07ZM-6272.04-2986.68c-70.44 18.63-133.7 64.31-172.96 132.33-50.92 88.34-49.02 192.73-4.15 276.35l54.4-31.43c-34.21-64.99-35.44-145.36 3.93-213.6 27.59-47.82 70.43-81.27 118.66-98.1v240.88l64.16-37.05V-2996c-21.65.67-43.18 3.82-64.04 9.32ZM-6013.34-2594.45c-39.1 61.82-107.89 102.96-186.66 102.96-55.12 0-105.43-20.24-144.08-53.66l208.17-119.96L-6200-2702l-186.66 107.55-54.34 31.3a283.847 283.847 0 0 0 40.11 50.75c51.32 51.54 122.35 83.4 200.89 83.4 101.84 0 191.03-53.66 241-134.15l-54.34-31.3Z"/></g></svg>