<svg width="437" height="562" xmlns="http://www.w3.org/2000/svg" xmlns:xlink="http://www.w3.org/1999/xlink" overflow="hidden"><defs><clipPath id="clip0"><rect x="-5483" y="-740" width="437" height="562"></rect></clipPath></defs><g clip-path="url(#clip0)" transform="translate(5483 740)"><path d="M-5482-696.192-5482-385.972C-5457.66-274.635-5366.35-215.15-5291.87-194.049-5269.88-187.876-5264.84-178-5264.84-178-5254.85-191.355-5229.17-197.192-5204.04-207.406-5153.56-227.832-5113.29-259.258-5079.42-307.071-5052.38-345.231-5047-394.615-5047-394.615L-5047-697.538C-5133.93-733.342-5212-738.28-5261.81-738.953-5383.06-740.637-5482-696.192-5482-696.192Z" fill="#A7A9AC" fill-rule="evenodd"></path><path d="M-5471-688.596-5471-388.866C-5447.89-281.371-5361.3-223.869-5290.52-203.469-5269.66-197.527-5264.84-188-5264.84-188-5255.3-200.89-5230.96-206.607-5207.07-216.471-5159.17-236.199-5120.93-266.576-5088.73-312.757-5063.05-349.634-5058-397.385-5058-397.385L-5058-689.942C-5140.44-724.466-5214.7-729.286-5261.92-729.958-5377.12-731.527-5471-688.596-5471-688.596Z" fill="#2B2F89" fill-rule="evenodd"></path><path d="M-5448-666.719-5448-397.426C-5427.36-300.817-5350.2-249.203-5287.16-230.913-5268.54-225.527-5264.28-217-5264.28-217-5255.76-228.557-5234.11-233.718-5212.8-242.582-5170.18-260.311-5136.08-287.577-5107.37-329.093-5084.49-362.193-5080-405.056-5080-405.056L-5080-667.953C-5153.47-699.034-5219.64-703.298-5261.7-703.971-5364.33-705.205-5448-666.719-5448-666.719Z" fill="#A7A9AC" fill-rule="evenodd"></path><path d="M-5436-657.375-5436-399.089C-5416.78-306.37-5344.86-256.869-5286.08-239.358-5268.77-234.194-5264.72-226-5264.72-226-5256.86-237.113-5236.63-242.052-5216.74-250.47-5176.95-267.42-5145.26-293.574-5118.51-333.423-5097.16-365.189-5093-406.385-5093-406.385L-5093-658.497C-5161.44-688.244-5223.14-692.397-5262.36-692.958-5358-694.417-5436-657.375-5436-657.375Z" fill="#FFFFFF" fill-rule="evenodd"></path><path d="M-5417-639.596-5417-404.598C-5399.85-320.255-5335.74-275.227-5283.28-259.209-5267.81-254.505-5264.22-247-5264.22-247-5257.16-257.081-5239.12-261.562-5221.41-269.291-5185.87-284.748-5157.63-308.606-5133.75-344.785-5114.7-373.684-5111-411.095-5111-411.095L-5111-640.604C-5172.09-667.71-5227.12-671.519-5262.09-671.967-5347.51-673.2-5417-639.596-5417-639.596Z" fill="#A7A9AC" fill-rule="evenodd"></path><path d="M-5406-630.61-5406-410.515C-5390.19-331.549-5330.76-289.322-5282.33-274.424-5268.09-270.056-5264.72-263-5264.72-263-5258.22-272.52-5241.51-276.665-5225.14-283.833-5192.29-298.282-5166.17-320.572-5144.08-354.51-5126.48-381.504-5123-416.675-5123-416.675L-5123-631.619C-5179.51-656.933-5230.41-660.517-5262.71-660.965-5341.64-662.197-5406-630.61-5406-630.61Z" fill="#DE2726" fill-rule="evenodd"></path><path d="M-5299.14-500.066C-5299.14-500.066-5299.81-500.291-5301.26-500.628L-5301.26-500.628C-5302.71-500.965-5304.84-501.527-5307.52-501.977L-5307.52-501.977C-5312.88-502.988-5320.37-503.887-5328.75-503.887L-5328.75-503.887C-5329.2-503.887-5329.75-503.887-5330.2-503.887L-5330.2-503.887C-5330.2-503.887-5336.24-502.988-5336.91-505.012-5337.69-507.035-5333.33-511.194-5333.33-511.194-5333.33-511.194-5333-511.531-5332.32-512.317L-5332.32-512.317C-5331.65-513.104-5330.65-514.229-5329.53-515.69L-5329.53-515.69C-5327.3-518.612-5324.5-522.771-5322.38-527.492L-5322.38-527.492-5291.87-595.494-5288.3-594.371C-5288.3-594.371-5287.63-594.146-5286.4-593.808L-5286.4-593.808C-5285.06-593.471-5283.16-593.022-5280.81-592.572L-5280.81-592.572C-5276.12-591.672-5269.64-590.774-5262.82-590.774L-5262.82-590.774C-5261.93-590.774-5261.14-590.774-5260.25-590.774L-5260.25-590.774C-5246.84-591.223-5223.6-598.079-5205.72-612.017L-5205.72-612.017-5203.26-613.928C-5203.26-613.928-5201.81-614.265-5200.35-613.478-5198.9-612.692-5197.9-609.095-5198.01-605.611L-5198.01-605.611C-5198.01-603.475-5198.57-601.002-5199.8-597.742L-5199.8-597.742C-5203.6-588.862-5216.22-572.34-5221.36-567.507L-5221.36-567.507C-5223.6-565.708-5225.72-565.258-5228.85-564.471L-5228.85-564.471C-5231.87-563.797-5235.67-563.235-5239.91-562.673L-5239.91-562.673C-5247.62-561.774-5257.01-561.1-5266.17-560.987L-5266.17-560.987C-5266.17-560.987-5294.11-499.391-5295.56-499.054-5297.01-498.717-5299.14-500.066-5299.14-500.066L-5299.14-500.066ZM-5300.25-509.17-5271.65-569.417-5268.97-569.417C-5254.89-569.53-5239.58-570.878-5231.53-572.565L-5231.53-572.565C-5229.19-573.014-5227.29-573.689-5226.95-573.914L-5226.95-573.914C-5226.95-573.914-5226.95-573.914-5226.95-573.914L-5226.95-573.914C-5223.6-576.724-5211.19-593.134-5208.06-599.991L-5208.06-599.991C-5226.06-588.413-5246.39-582.793-5260.03-582.231L-5260.03-582.231C-5261.03-582.231-5261.93-582.231-5262.93-582.231L-5262.93-582.231C-5273.32-582.231-5282.49-584.029-5287.29-585.266L-5287.29-585.266-5314.78-524.007C-5316.9-519.399-5319.36-515.352-5321.6-512.317L-5321.6-512.317C-5312.1-511.643-5304.39-510.182-5300.25-509.17L-5300.25-509.17ZM-5205.72-605.161-5203.26-608.645-5205.72-605.161-5205.72-605.161ZM-5206.61-606.06-5206.61-606.06-5206.61-606.06-5206.61-606.06-5206.61-606.06-5206.61-606.06Z" fill="#A7A9AC" fill-rule="evenodd"></path><path d="M-5298.98-499.744C-5298.98-499.744-5295.98-499.631-5295.2-497.943-5294.42-496.14-5296.2-493.325-5296.2-493.325-5296.2-493.325-5299.31-488.259-5302.88-482.065L-5302.88-482.065C-5306.44-475.984-5310.44-468.553-5312-464.611L-5312-464.611C-5314.34-458.53-5319.46-445.13-5319.46-427.226L-5319.46-427.226C-5319.46-424.186-5319.34-420.92-5318.9-417.542L-5318.9-417.542-5318.45-412.812-5326.91-412.812-5321.12-408.646-5320.9-406.731C-5320.9-406.731-5320.46-401.664-5319.01-392.431L-5319.01-392.431C-5317.79-384.323-5311.44-373.963-5308.33-369.458L-5308.33-369.458C-5307.33-367.995-5306.66-367.094-5306.66-367.094L-5306.66-367.094C-5306.66-367.094-5304.32-363.828-5304.99-362.252-5305.99-359.775-5309.89-360.113-5309.89-360.113-5311.44-360-5313-360-5314.45-360L-5314.45-360C-5314.45-360-5314.56-360-5314.56-360L-5314.56-360C-5330.92-360-5344.49-364.054-5356.96-371.486L-5356.96-371.486C-5372.54-381.057-5385.78-404.592-5386-431.505L-5386-431.505C-5386-440.401-5384.44-449.747-5380.88-458.981L-5380.88-458.981C-5374.54-475.421-5363.41-486.119-5351.06-492.425L-5351.06-492.425C-5338.71-498.731-5325.35-500.87-5314-500.983L-5314-500.983C-5308.33-501.095-5303.32-500.645-5298.98-499.744L-5298.98-499.744M-5347.05-484.993C-5357.85-479.362-5367.19-470.467-5372.87-456.053L-5372.87-456.053C-5375.98-447.945-5377.43-439.725-5377.43-431.73L-5377.43-431.73C-5377.54-407.858-5364.75-386.237-5352.62-379.03L-5352.62-379.03C-5342.27-372.837-5331.47-369.346-5318.01-368.783L-5318.01-368.783C-5321.57-374.413-5325.91-382.747-5327.36-390.967L-5327.36-390.967C-5328.36-397.047-5328.91-401.552-5329.14-403.804L-5329.14-403.804-5353.62-421.258-5327.69-421.258C-5327.8-423.285-5327.91-425.199-5327.91-427.113L-5327.91-427.113C-5327.91-446.594-5322.35-461.346-5319.9-467.651L-5319.9-467.651C-5317.34-474.295-5310.78-485.443-5306.77-492.2L-5306.77-492.2C-5309-492.425-5311.44-492.538-5313.89-492.538L-5313.89-492.538C-5313.89-492.538-5313.89-492.538-5314-492.538L-5314-492.538C-5324.24-492.538-5336.37-490.51-5347.05-484.993L-5347.05-484.993Z" fill="#A7A9AC" fill-rule="evenodd"></path><path d="M-5267.55-345.288C-5287.44-353.148-5300.25-364.04-5307.89-376.84L-5307.89-376.84C-5315.53-389.529-5318-403.901-5318-418.386L-5318-418.386C-5318-418.835-5318-419.172-5318-419.509L-5318-419.509C-5317.78-440.731-5308.11-457.687-5294.52-467.904L-5294.52-467.904C-5296.32-466.894-5298-465.771-5299.8-464.536L-5299.8-464.536C-5299.8-464.536-5308.11-457.574-5308.67-461.167-5309.01-463.189-5260.03-562.225-5260.03-562.225L-5256.43-560.541-5256.43-560.541-5256.43-560.541C-5256.32-560.541-5256.09-560.428-5255.65-560.316L-5255.65-560.316C-5254.86-560.204-5253.29-559.979-5251.04-559.979L-5251.04-559.979C-5248.23-559.979-5244.07-560.316-5238.57-561.327L-5238.57-561.327C-5221.49-564.471-5189.36-575.138-5155.43-607.589L-5155.43-607.589C-5155.43-607.589-5151.38-611.855-5149.36-610.845-5147.34-609.834-5148.24-603.995-5148.24-603.995-5148.24-603.546-5150.26-585.469-5164.98-563.909L-5164.98-563.909C-5179.25-542.8-5201.38-528.876-5233.51-526.406L-5233.51-526.406-5241.71-509.226C-5237.11-510.236-5230.93-511.135-5223.96-511.135L-5223.96-511.135C-5211.83-511.135-5196.66-508.328-5181.61-498.783L-5181.61-498.783C-5157-483.063-5146.89-456.227-5147-430.625L-5147-430.625C-5147-411.761-5152.28-393.458-5161.61-379.647L-5161.61-379.647C-5177.79-355.73-5205.65-339.112-5236.21-339L-5236.21-339C-5246.21-339.112-5256.88-341.133-5267.55-345.288L-5267.55-345.288ZM-5309.35-419.509C-5309.35-419.172-5309.35-418.723-5309.35-418.386L-5309.35-418.386C-5309.35-404.799-5307.1-392.224-5300.47-381.22L-5300.47-381.22C-5293.84-370.328-5282.83-360.671-5264.3-353.261L-5264.3-353.261C-5254.75-349.442-5245.2-347.758-5235.76-347.758L-5235.76-347.758C-5208.34-347.758-5182.84-362.917-5168.24-384.588L-5168.24-384.588C-5160.03-396.715-5155.09-413.671-5155.09-430.85L-5155.09-430.85C-5155.09-454.318-5164.19-477.898-5185.76-491.821L-5185.76-491.821C-5199.24-500.468-5212.61-502.825-5223.51-502.825L-5223.51-502.825C-5236.1-502.825-5245.31-499.569-5247.22-498.896L-5247.22-498.896C-5247.56-498.783-5247.56-498.783-5247.56-498.783L-5247.56-498.783-5257.78-494.516-5238.68-534.94-5236.21-535.052C-5204.86-537.073-5185.2-549.537-5171.72-569.074L-5171.72-569.074C-5165.76-577.833-5162.06-585.917-5159.81-592.205L-5159.81-592.205C-5191.15-565.818-5220.03-556.274-5236.66-553.242L-5236.66-553.242C-5242.72-552.119-5247.22-551.783-5250.7-551.783L-5250.7-551.783C-5252.61-551.783-5254.18-551.895-5255.42-552.119L-5255.42-552.119-5291.82-479.133C-5281.71-483.85-5271.15-486.319-5260.25-486.319L-5260.25-486.319C-5250.81-486.319-5241.15-484.523-5231.26-481.042L-5231.26-481.042C-5212.17-474.417-5202.17-457.237-5202.28-438.823L-5202.28-438.823C-5202.28-432.31-5203.51-425.573-5205.87-418.948L-5205.87-418.948C-5209.13-409.74-5214.3-403.901-5219.8-400.533L-5219.8-400.533C-5225.31-397.164-5230.81-396.378-5234.86-396.378L-5234.86-396.378C-5238.68-396.378-5241.15-397.052-5241.49-397.164L-5241.49-397.164-5254.97-400.87-5241.83-405.361C-5235.53-407.494-5230.59-410.751-5227.11-415.242L-5227.11-415.242C-5223.62-419.734-5221.6-425.573-5221.6-433.545L-5221.6-433.545C-5221.6-433.994-5221.6-434.443-5221.6-434.78L-5221.6-434.78C-5222.05-451.061-5234.64-468.466-5257.89-470.824L-5257.89-470.824C-5259.24-470.936-5260.59-471.049-5261.94-471.049L-5261.94-471.049C-5284.97-470.599-5309.12-451.061-5309.35-419.509L-5309.35-419.509ZM-5212.95-434.668C-5212.95-434.219-5212.95-433.77-5212.95-433.208L-5212.95-433.208C-5212.95-426.695-5214.19-420.856-5216.55-415.916L-5216.55-415.916C-5215.65-417.488-5214.75-419.397-5214.07-421.53L-5214.07-421.53C-5212.05-427.257-5211.04-433.096-5211.04-438.485L-5211.04-438.485C-5211.15-454.093-5218.79-467.118-5234.41-472.733L-5234.41-472.733C-5236.54-473.519-5238.68-474.192-5240.7-474.754L-5240.7-474.754C-5223.18-467.007-5213.4-450.613-5212.95-434.668L-5212.95-434.668Z" fill="#A7A9AC" fill-rule="evenodd"></path><path d="M-5202.95-609C-5221.87-594.447-5245.75-587.506-5260.27-586.946-5275.93-586.387-5290.01-590.752-5290.01-590.752L-5319.18-526.494C-5323.91-516.195-5331-509.03-5331-509.03-5312.64-509.254-5298.34-505-5298.34-505L-5269.17-565.788C-5249.35-566.012-5227.5-568.363-5224.12-571.273-5219.84-574.968-5206.56-592.32-5203.51-599.82-5200.47-607.209-5202.95-609-5202.95-609Z" fill="#F5EA2B" fill-rule="evenodd"></path><path d="M-5299-495.708C-5319.85-499.747-5362.01-496.157-5377.12-457.895-5390.76-423.335-5373.4-386.981-5354.69-375.873-5341.61-368.131-5327.52-364.316-5309.37-365.101-5309.37-365.101-5320.64-379.688-5322.67-392.143-5324.14-401.456-5324.7-406.617-5324.7-406.617L-5340.03-417.389-5322.67-417.389C-5325.15-440.952-5318.16-459.017-5315.35-466.31-5311.85-475.399-5299-495.708-5299-495.708Z" fill="#F5EA2B" fill-rule="evenodd"></path><path d="M-5152.25-604C-5186.73-570.914-5219.53-559.922-5237.33-556.67-5252.66-553.866-5257.59-556.222-5257.59-556.222L-5301.58-467.73C-5280.31-482.31-5257.48-485.114-5232.51-476.254-5209.23-467.954-5201.28-443.392-5209.79-419.614-5218.63-394.716-5240.01-400.548-5240.01-400.548-5226.02-405.259-5216.51-415.802-5216.95-434.083-5217.4-452.365-5231.73-471.655-5257.03-474.235-5283.78-476.927-5312.77-454.944-5313-419.054-5313.22-390.454-5304.27-364.434-5265.54-348.844-5226.02-333.03-5185.28-351.087-5164.79-381.705-5144.31-412.325-5143.64-469.076-5183.49-494.76-5216.28-515.845-5248.97-502.05-5248.97-502.05L-5235.76-530.089C-5203.52-532.108-5182.25-545.342-5168.26-565.867-5154.16-586.728-5152.25-604-5152.25-604Z" fill="#F5EA2B" fill-rule="evenodd"></path></g></svg>