<svg width="535" height="535" xmlns="http://www.w3.org/2000/svg" xmlns:xlink="http://www.w3.org/1999/xlink" overflow="hidden"><defs><clipPath id="clip0"><rect x="-2850" y="-1366" width="535" height="535"></rect></clipPath></defs><g clip-path="url(#clip0)" transform="translate(2850 1366)"><path d="M-2315-1098.34C-2315-1245.47-2434.53-1365-2581.66-1365-2729.47-1365-2849-1245.47-2849-1098.34-2849-950.527-2729.47-831-2581.66-831-2434.53-831-2315-950.527-2315-1098.34Z" fill="#1D2088" fill-rule="evenodd"></path><path d="M-2581-859C-2712.78-859-2820-966.405-2820-1098.34-2820-1229.93-2712.78-1337-2581-1337-2449.22-1337-2342-1229.93-2342-1098.34-2342.11-966.405-2449.33-859-2581-859ZM-2581-1316.73C-2701.57-1316.73-2799.7-1218.73-2799.7-1098.34-2799.7-977.492-2701.57-879.271-2581-879.271-2460.43-879.271-2362.3-977.492-2362.3-1098.34-2362.41-1218.84-2460.55-1316.73-2581-1316.73Z" fill="#FFFFFF" fill-rule="evenodd"></path><path d="M-2552.17-1307-2544.24-1282.13-2519-1282.13-2539.88-1266.87-2531.95-1242-2552.17-1257.37-2573.05-1242-2565.12-1266.87-2586-1282.13-2560.09-1282.13Z" fill="#FFFFFF" fill-rule="evenodd"></path><path d="M-2552.17-1195-2544.24-1170.32-2519-1170.32-2539.88-1155-2531.95-1131-2552.17-1145.53-2573.05-1131-2565.12-1155-2586-1170.32-2560.09-1170.32Z" fill="#FFFFFF" fill-rule="evenodd"></path><path d="M-2552.17-1083-2544.24-1058.51-2519-1058.51-2539.88-1043.49-2531.95-1019-2552.17-1034.14-2573.05-1019-2565.12-1043.49-2586-1058.51-2560.09-1058.51Z" fill="#FFFFFF" fill-rule="evenodd"></path><path d="M-2552.17-971-2544.24-946.324-2519-946.324-2539.88-931-2531.95-907-2552.17-921.535-2573.05-907-2565.12-931-2586-946.324-2560.09-946.324Z" fill="#FFFFFF" fill-rule="evenodd"></path><path d="M-2661.84-1282-2653.91-1257.21-2628-1257.21-2648.88-1242-2640.95-1218-2661.84-1233.21-2682.05-1218-2674.79-1242-2695-1257.21-2669.76-1257.21Z" fill="#FFFFFF" fill-rule="evenodd"></path><path d="M-2661.38-1001-2662.83-974.638-2639-965.925-2664.28-959.362-2664.95-933-2679.39-954.95-2704-948.388-2688.11-968.075-2701.76-990.025-2677.93-980.521Z" fill="#FFFFFF" fill-rule="evenodd"></path><path d="M-2443.26-1032-2444.71-1006.09-2421-997.384-2445.49-990.237-2446.93-965-2460.51-986.552-2485-980.075-2469.19-999.505-2482.77-1021.17-2459.07-1011.79Z" fill="#FFFFFF" fill-rule="evenodd"></path></g></svg>