


<svg width="150.52196mm" height="200.01793mm" viewBox="0 0 150.52196 200.01793" version="1.1" id="svg12026" xmlns="http://www.w3.org/2000/svg">
  
  <defs id="defs12023">
    <clipPath id="clip324">
      <path d="M 0,835 H 82 V 955.26953 H 0 Z m 0,0" id="path6109"></path>
    </clipPath>
  </defs>
  <g id="layer1" transform="translate(-17.420792,-44.653053)">
    <g id="g11984" transform="matrix(2.9325436,0,0,2.9325436,9.4708495,-2486.407)">
      <path style="fill:#ffffff;fill-opacity:1;fill-rule:nonzero;stroke:none" d="m 28.375,864.09375 c -14.4375,0 -24.664062,6.61719 -24.664062,6.61719 v 31.73437 c 0,0 2.480468,11.80469 6.617187,15.9375 9.660156,9.66406 18.046875,11.88281 18.046875,11.88281 0,0 8.382813,-2.21875 18.046875,-11.88281 4.136719,-4.13281 6.617188,-15.9375 6.617188,-15.9375 v -31.73437 c 0,0 -10.226563,-6.61719 -24.664063,-6.61719" id="path9900"></path>
      <g clip-path="url(#clip324)" clip-rule="nonzero" id="g9904">
        <path style="fill:none;stroke:#35478a;stroke-width:20;stroke-linecap:butt;stroke-linejoin:miter;stroke-miterlimit:10;stroke-opacity:1" d="m 283.75,911.7625 c -144.375,0 -246.640625,-66.17187 -246.640625,-66.17187 V 528.24688 c 0,0 24.804688,-118.04688 66.171875,-159.37501 C 199.88281,272.23125 283.75,250.04375 283.75,250.04375 c 0,0 83.82812,22.1875 180.46875,118.82812 41.36719,41.32813 66.17187,159.37501 66.17187,159.37501 v 317.34375 c 0,0 -102.26562,66.17187 -246.64062,66.17187 z m 0,0" transform="matrix(0.1,0,0,-0.1,0,955.27)" id="path9902"></path>
      </g>
      <path style="fill:#334782;fill-opacity:1;fill-rule:nonzero;stroke:none" d="m 6.417969,881.57031 v 20.51563 c 0,0 2.609375,10.64062 6.316406,14.49218 8.660156,9.00391 15.789063,10.67969 15.789063,10.67969 0,0 7.054687,-1.67578 15.71875,-10.67969 3.703125,-3.85156 6.390625,-14.49218 6.390625,-14.49218 v -20.51563 c 0,0 -9.316407,-5.35547 -22.257813,-5.35547 -12.941406,0 -21.957031,5.35547 -21.957031,5.35547" id="path9906"></path>
      <path style="fill:#334782;fill-opacity:1;fill-rule:nonzero;stroke:none" d="m 28.375,866.83984 c -12.941406,0 -21.957031,5.35547 -21.957031,5.35547 v 6.9375 c 0,0 9.015625,-4.61719 21.957031,-4.61719 12.941406,0 22.257813,4.61719 22.257813,4.61719 v -6.9375 c 0,0 -9.316407,-5.35547 -22.257813,-5.35547" id="path9908"></path>
      <path style="fill:#ffffff;fill-opacity:1;fill-rule:nonzero;stroke:none" d="m 10.246094,875.14844 c -0.09766,-0.26953 -0.144531,-0.39844 -0.242188,-0.66797 0.765625,-0.25781 1.152344,-0.37891 1.929688,-0.60938 0.08594,0.26953 0.128906,0.40235 0.21875,0.67188 -0.765625,0.22656 -1.148438,0.34765 -1.90625,0.60547 m 2.941406,-0.90235 c -0.08203,-0.26953 -0.121094,-0.40625 -0.203125,-0.67578 0.410156,-0.11328 0.617188,-0.16797 1.03125,-0.27734 -0.07813,-0.26953 -0.117187,-0.40625 -0.191406,-0.67578 -2.507813,0.64453 -3.746094,1.03515 -6.179688,1.95312 0.105469,0.26172 0.164063,0.39453 0.269532,0.65625 0.417968,-0.16015 0.628906,-0.23828 1.050781,-0.38672 0.105469,0.26563 0.15625,0.39453 0.257812,0.66016 -0.28125,0.10156 -0.417968,0.14844 -0.699218,0.25391 0.105468,0.26562 0.160156,0.39843 0.269531,0.66406 1.679687,-0.625 2.527344,-0.90235 4.242187,-1.38672 0.164063,0.52344 0.246094,0.78516 0.410157,1.30859 0.398437,-0.11328 0.597656,-0.16797 0.996093,-0.27343 -0.230468,-0.80079 -0.34375,-1.19922 -0.578125,-2.00391 -0.269531,0.0742 -0.40625,0.10937 -0.675781,0.18359" id="path9910"></path>
      <path style="fill:#ffffff;fill-opacity:1;fill-rule:nonzero;stroke:none" d="m 8.78125,872.11328 c 0.269531,-0.20703 0.683594,-0.40234 1.230469,-0.57422 0.546875,-0.17578 1.003906,-0.2539 1.347656,-0.24219 0.320313,0.0117 0.503906,0.10547 0.554688,0.26563 0.04687,0.15234 -0.05469,0.32422 -0.308594,0.50391 -0.273438,0.19921 -0.683594,0.3789 -1.21875,0.54687 -0.539063,0.17188 -0.976563,0.25781 -1.320313,0.25781 -0.316406,-0.004 -0.503906,-0.0781 -0.5625,-0.23047 -0.058593,-0.15625 0.03125,-0.33593 0.277344,-0.52734 m -1.390625,0.92578 c 0.136719,0.33203 0.484375,0.52735 1.027344,0.58985 0.601562,0.0703 1.339844,-0.0469 2.222656,-0.32813 0.878906,-0.27734 1.539063,-0.60156 1.980469,-1 0.398437,-0.36328 0.554687,-0.71484 0.457031,-1.05859 -0.101562,-0.34766 -0.429687,-0.58203 -0.984375,-0.67578 -0.609375,-0.10547 -1.386719,-0.0156 -2.308594,0.27343 -0.00781,0.004 -0.011718,0.004 -0.019531,0.008 -0.449219,0.17968 -0.855469,0.35156 -1.21875,0.51171 -0.320312,0.17969 -0.589844,0.3711 -0.789062,0.57813 -0.382813,0.39453 -0.5,0.76562 -0.367188,1.10156" id="path9912"></path>
      <path style="fill:#ffffff;fill-opacity:1;fill-rule:nonzero;stroke:none" d="m 18.300781,874.29687 c -0.101562,-0.58203 -0.15625,-0.87109 -0.261718,-1.44921 -0.394532,0.0781 -0.59375,0.12109 -0.988282,0.21093 0.117188,0.58594 0.171875,0.875 0.289063,1.45703 0.05078,0.25 0.152344,0.41797 0.296875,0.5 0.148437,0.082 0.382812,0.0898 0.6875,0.0273 1.640625,-0.34375 2.464844,-0.47656 4.121094,-0.67188 -0.03125,-0.29297 -0.04687,-0.4375 -0.07813,-0.73047 -1.632813,0.19141 -2.445313,0.32032 -4.066407,0.65625" id="path9914"></path>
      <path style="fill:#ffffff;fill-opacity:1;fill-rule:nonzero;stroke:none" d="m 19.253906,873.25 c 0.390625,-0.0703 0.585938,-0.10547 0.976563,-0.16797 -0.07813,-0.57031 -0.121094,-0.85156 -0.199219,-1.42578 0.957031,-0.15234 1.441406,-0.21875 2.40625,-0.32813 -0.03125,-0.29296 -0.04297,-0.4414 -0.07422,-0.73437 -0.175781,0.0195 -0.265625,0.0312 -0.445312,0.0547 0.03125,-0.19141 0.05078,-0.39844 0.05078,-0.61719 0,-0.19141 -0.01953,-0.42969 -0.04687,-0.71094 -0.05469,-0.50781 -0.07813,-0.76562 -0.132812,-1.27734 -2.234375,0.26562 -3.34375,0.45703 -5.550782,0.95703 0.05859,0.28906 0.08984,0.4375 0.148438,0.72656 1.757812,-0.39844 2.640625,-0.55859 4.417969,-0.80469 0.03516,0.28516 0.05469,0.42969 0.08594,0.71485 0.03125,0.2539 0.04687,0.46484 0.05078,0.62109 0,0.17969 -0.0039,0.35547 -0.03125,0.51953 -1.796875,0.25391 -2.691406,0.42188 -4.464843,0.83594 0.05859,0.28906 0.08984,0.43359 0.148437,0.72266 0.96875,-0.22657 1.457031,-0.32813 2.433594,-0.50782 0.08984,0.57032 0.136719,0.85157 0.226562,1.42188" id="path9916"></path>
      <path style="fill:#ffffff;fill-opacity:1;fill-rule:nonzero;stroke:none" d="m 25.550781,871.04297 c 0.01953,0.29297 0.02734,0.4414 0.04297,0.73437 1.042969,-0.0586 1.5625,-0.0742 2.605469,-0.0859 0.0039,0.34375 0.0078,0.51171 0.01172,0.85546 0.417968,-0.004 0.628906,-0.004 1.046875,0 0.0039,-0.34375 0.0039,-0.51562 0.0078,-0.85546 1.042969,0.008 1.566406,0.0273 2.605469,0.082 0.01953,-0.29297 0.02734,-0.44141 0.04297,-0.73438 -2.542969,-0.14062 -3.820313,-0.14062 -6.363282,0.004" id="path9918"></path>
      <path style="fill:#ffffff;fill-opacity:1;fill-rule:nonzero;stroke:none" d="m 27.066406,873.17187 c -0.01563,-0.46093 -0.02344,-0.6914 -0.03906,-1.15625 -0.425781,0.0156 -0.636719,0.0234 -1.066406,0.043 0.02734,0.48828 0.03906,0.73047 0.0625,1.21875 0.01172,0.22657 0.08203,0.39063 0.207031,0.5 0.117187,0.10157 0.28125,0.15235 0.496094,0.14453 1.894531,-0.0742 2.847656,-0.0664 4.738281,0.0273 0.01563,-0.29297 0.02344,-0.44141 0.03906,-0.73438 -1.773437,-0.0898 -2.664062,-0.0976 -4.4375,-0.043" id="path9920"></path>
      <path style="fill:#ffffff;fill-opacity:1;fill-rule:nonzero;stroke:none" d="m 28.71875,868.95703 c 0.5625,0 1.003906,0.0547 1.320313,0.16406 0.296875,0.10157 0.441406,0.23438 0.433593,0.38672 -0.0039,0.14453 -0.15625,0.25781 -0.449218,0.34375 -0.3125,0.0937 -0.75,0.14453 -1.304688,0.14453 -0.550781,0 -0.980469,-0.0508 -1.292969,-0.14062 -0.285156,-0.0859 -0.441406,-0.19922 -0.445312,-0.34375 -0.0039,-0.15625 0.136719,-0.28516 0.429687,-0.39063 0.308594,-0.10547 0.75,-0.16406 1.308594,-0.16406 m -3.007812,-0.39453 c 0.703125,-0.0352 1.054687,-0.0469 1.761718,-0.0625 -0.648437,0.12891 -1.101562,0.33203 -1.363281,0.58594 -0.257812,0.25 -0.332031,0.5664 -0.191406,0.875 0.101562,0.22656 0.410156,0.41015 0.871094,0.54687 0.511718,0.14844 1.15625,0.21875 1.933593,0.21875 0.773438,0 1.417969,-0.0703 1.929688,-0.22265 0.464844,-0.13672 0.789062,-0.32422 0.886719,-0.54297 0.136718,-0.30078 0.05078,-0.62891 -0.207032,-0.87891 -0.265625,-0.25391 -0.726562,-0.45703 -1.371093,-0.58594 0.710937,0.0156 1.066406,0.0274 1.777343,0.0664 0.01172,-0.29688 0.01953,-0.44531 0.03516,-0.73828 -0.988282,-0.0508 -1.484375,-0.0664 -2.472657,-0.0742 0,-0.16016 0.0039,-0.24219 0.0039,-0.40234 -0.460938,-0.004 -0.6875,-0.004 -1.148438,0 0.0039,0.16015 0.0039,0.24218 0.0039,0.40234 -0.996093,0.0117 -1.492187,0.0273 -2.488281,0.0781 0.01563,0.29297 0.02344,0.44141 0.03906,0.73438" id="path9922"></path>
      <path style="fill:#ffffff;fill-opacity:1;fill-rule:nonzero;stroke:none" d="m 39.65625,869.27344 c -0.433594,-0.0899 -0.648437,-0.13282 -1.078125,-0.21094 -0.05078,0.28906 -0.07031,0.4375 -0.117187,0.73047 0.425781,0.0781 0.636718,0.11719 1.0625,0.20703 -0.04297,0.25391 -0.06641,0.37891 -0.113282,0.63281 -0.421875,-0.0859 -0.632812,-0.1289 -1.054687,-0.20703 -0.04687,0.28906 -0.06641,0.43359 -0.113281,0.72266 0.414062,0.0781 0.625,0.11718 1.039062,0.20312 -0.03125,0.19141 -0.05078,0.28516 -0.08203,0.47266 -1.363281,-0.28125 -2.050781,-0.39844 -3.425781,-0.58203 0.04297,-0.35157 0.0625,-0.53125 0.105468,-0.88282 0.878907,0.11719 1.316407,0.1875 2.195313,0.34375 0.132812,-0.86718 0.199219,-1.30078 0.335937,-2.16796 -1.332031,-0.23829 -2,-0.33594 -3.339843,-0.48829 -0.02734,0.28516 -0.04297,0.42969 -0.07031,0.71485 0.90625,0.10156 1.359375,0.16406 2.261719,0.30859 -0.03906,0.30078 -0.05859,0.44922 -0.101563,0.75 -0.890625,-0.14062 -1.339843,-0.20312 -2.234375,-0.30469 -0.0625,0.63672 -0.09375,0.95313 -0.15625,1.58594 -0.02344,0.23828 0.03516,0.4336 0.175782,0.57422 0.136718,0.14063 0.359375,0.22656 0.65625,0.26953 1.394531,0.1836 2.085937,0.30078 3.46875,0.58594 -0.05469,0.3125 -0.08203,0.47266 -0.140625,0.78125 0.390625,0.082 0.582031,0.12109 0.96875,0.21094 0.367187,-1.84766 0.550781,-2.77344 0.917968,-4.6211 -0.421875,-0.0976 -0.632812,-0.14062 -1.054687,-0.23047 -0.04297,0.24219 -0.0625,0.35938 -0.105469,0.60157" id="path9924"></path>
      <path style="fill:#ffffff;fill-opacity:1;fill-rule:nonzero;stroke:none" d="m 36.042969,872.40234 c -0.390625,-0.0547 -0.589844,-0.082 -0.984375,-0.13281 -0.0625,0.58594 -0.09375,0.875 -0.15625,1.45703 -0.01953,0.22266 0.01563,0.39844 0.117187,0.53125 0.08984,0.11719 0.238282,0.19141 0.429688,0.21875 1.667969,0.22656 2.5,0.37891 4.152344,0.75781 0.05469,-0.28906 0.08594,-0.43359 0.140625,-0.71875 -1.539063,-0.35546 -2.316407,-0.49609 -3.871094,-0.71875 0.07031,-0.55859 0.105469,-0.83593 0.171875,-1.39453" id="path9926"></path>
      <path style="fill:#ffffff;fill-opacity:1;fill-rule:nonzero;stroke:none" d="m 45.488281,872.44922 c -0.53125,0.27734 -1.203125,0.42578 -2.015625,0.46094 0.105469,0.25781 0.160157,0.38671 0.257813,0.64453 0.695312,-0.0195 1.285156,-0.082 1.769531,-0.19922 0.503906,-0.125 1.203125,-0.61719 1.28125,-0.59375 0.03125,0.0117 0.375,0.85156 0.707031,1.2539 0.320313,0.38672 0.753907,0.78907 1.296875,1.22266 0.253907,-0.14062 0.382813,-0.21094 0.640625,-0.34766 -0.671875,-0.53125 -1.148437,-1.05859 -1.414062,-1.59765 -0.300781,-0.6211 -0.351563,-1.30469 -0.136719,-2.04688 -0.316406,-0.13672 -0.65625,-0.28515 -1.03125,-0.4375 -0.253906,0.75782 -0.710937,1.30078 -1.355469,1.64063" id="path9928"></path>
      <path style="fill:#ffffff;fill-opacity:1;fill-rule:nonzero;stroke:none" d="m 46.847656,874.26172 c -0.394531,-0.13281 -0.589843,-0.19922 -0.988281,-0.32813 -0.207031,0.66797 -0.316406,1 -0.527344,1.66407 -0.933593,-0.29688 -1.402343,-0.4375 -2.34375,-0.69141 -0.07031,0.26562 -0.109375,0.39844 -0.179687,0.66406 2.253906,0.60938 3.367187,0.97656 5.558594,1.84766 0.09766,-0.25391 0.148437,-0.38281 0.25,-0.63672 -0.925782,-0.37109 -1.390625,-0.53906 -2.328125,-0.86328 0.222656,-0.66406 0.335937,-0.99219 0.558593,-1.65625" id="path9930"></path>
      <path style="fill:#ffffff;fill-opacity:1;fill-rule:nonzero;stroke:none" d="m 18.65625,907.63672 1.140625,3.75781 h 3.695313 l -2.988282,2.32422 1.140625,3.75781 -2.988281,-2.32031 -2.988281,2.32031 1.140625,-3.75781 -2.988281,-2.32422 h 3.695312" id="path9932"></path>
      <path style="fill:#ffffff;fill-opacity:1;fill-rule:nonzero;stroke:none" d="m 38.640625,907.63672 1.140625,3.75781 h 3.691406 l -2.988281,2.32422 1.144531,3.75781 -2.988281,-2.32031 -2.988281,2.32031 1.140625,-3.75781 -2.992188,-2.32422 h 3.695313" id="path9934"></path>
      <path style="fill:#ffffff;fill-opacity:1;fill-rule:nonzero;stroke:none" d="m 28.730469,877.96875 1.144531,3.76172 h 3.695313 l -2.992188,2.32031 1.144531,3.76172 -2.992187,-2.32422 -2.988281,2.32422 1.144531,-3.76172 -2.988281,-2.32031 h 3.691406" id="path9936"></path>
      <path style="fill:#f3ca4f;fill-opacity:1;fill-rule:nonzero;stroke:none" d="m 28.808594,916.49609 c 0,0 -0.695313,0.48047 -1.542969,0.48047 -0.847656,0 -1.351562,-1.07422 -1.351562,-1.07422 0,0 -1.074219,-12.17968 -1.074219,-14.09765 0,-2.59375 -3.042969,-5.97657 -3.042969,-5.97657 l 7.011719,-7.45703 7.011719,7.45703 c 0,0 -3.046875,3.38282 -3.046875,5.97657 0,1.91797 -1.070313,14.09765 -1.070313,14.09765 0,0 -0.507812,1.07422 -1.355469,1.07422 -0.84375,0 -1.539062,-0.48047 -1.539062,-0.48047" id="path9938"></path>
      <path style="fill:#eb3a3a;fill-opacity:1;fill-rule:nonzero;stroke:none" d="m 28.808594,915.58984 c 0,0 -0.621094,0.45313 -1.378906,0.45313 -0.753907,0 -1.207032,-1.01172 -1.207032,-1.01172 0,0 -0.957031,-11.49219 -0.957031,-13.30078 0,-2.44531 -2.71875,-5.63672 -2.71875,-5.63672 l 6.261719,-7.03516 6.257812,7.03516 c 0,0 -2.71875,3.19141 -2.71875,5.63672 0,1.80859 -0.957031,13.30078 -0.957031,13.30078 0,0 -0.453125,1.01172 -1.207031,1.01172 -0.757813,0 -1.375,-0.45313 -1.375,-0.45313" id="path9940"></path>
      <path style="fill:#ffffff;fill-opacity:1;fill-rule:nonzero;stroke:none" d="m 27.585938,914.25 v -8.19531 l -1.054688,-12.63672 2.277344,-2.40235 2.273437,2.40235 -1.054687,12.63672 V 914.25" id="path9942"></path>
      <path style="fill:none;stroke:#b8b8ba;stroke-width:0.5;stroke-linecap:butt;stroke-linejoin:miter;stroke-miterlimit:10;stroke-opacity:1" d="m 28.808594,891.01562 v 15.67579" id="path9944"></path>
      <path style="fill:none;stroke:#4f4f4f;stroke-width:0.5;stroke-linecap:butt;stroke-linejoin:miter;stroke-miterlimit:10;stroke-opacity:1" d="m 27.585937,914.25 v -8.19531 l -1.054687,-12.63672 2.277344,-2.40235 2.273437,2.40235 -1.054687,12.63672 V 914.25 Z m 0,0" id="path9946"></path>
      <path style="fill:#b8b8ba;fill-opacity:1;fill-rule:nonzero;stroke:none" d="m 26.53125,907.25391 h 4.550781 v -1.125 H 26.53125 Z m 0,0" id="path9948"></path>
      <path style="fill:#b8b8ba;fill-opacity:1;fill-rule:nonzero;stroke:none" d="m 26.871094,914.85156 h 3.835937 V 914.25 h -3.835937 z m 0,0" id="path9950"></path>
    </g>
  </g>
</svg>
